<?xml version="1.0" ?><svg data-name="Слой 1" id="Слой_1" viewBox="0 0 128 128" xmlns="http://www.w3.org/2000/svg"><title/><rect height="8" width="15.49" x="7.55" y="52.45"/><rect height="8" width="15.49" x="104.96" y="52.45"/><rect height="15.95" transform="translate(-6.82 27.13) rotate(-45)" width="8" x="25.35" y="13.82"/><rect height="15.49" width="8" x="60"/><rect height="8" transform="translate(13.48 76.14) rotate(-45)" width="15.95" x="90.68" y="17.8"/><rect height="8" transform="translate(-55.82 47.43) rotate(-45)" width="15.95" x="21.37" y="87.1"/><rect height="15.95" transform="translate(-35.52 96.44) rotate(-45)" width="8" x="94.65" y="83.13"/><path d="M47.09,111.09a16.91,16.91,0,1,0,33.82,0V100H47.09Z"/><path d="M80.91,95.89a19.15,19.15,0,0,1,6.24-14.31,34.76,34.76,0,1,0-46.4-.08,19.34,19.34,0,0,1,6.34,14.39V96H80.91Z"/></svg>